<?xml version="1.0" standalone="no"?>
<!DOCTYPE svg PUBLIC "-//W3C//DTD SVG 20010904//EN"
 "http://www.w3.org/TR/2001/REC-SVG-20010904/DTD/svg10.dtd">
<svg version="1.0" xmlns="http://www.w3.org/2000/svg"
 width="50" height="50" viewBox="0 0 512.000000 512.000000"
 preserveAspectRatio="xMidYMid meet">

<g transform="translate(0.000000,512.000000) scale(0.100000,-0.100000)"
fill="#fff" stroke="none">
<path d="M2260 3616 c-165 -35 -296 -168 -330 -332 -7 -33 -10 -289 -8 -755
l3 -704 24 -58 c46 -115 152 -215 268 -253 52 -17 90 -19 343 -19 253 0 291 2
343 19 116 38 222 138 268 253 23 57 24 66 24 363 0 270 -2 311 -18 357 -28
79 -98 167 -169 214 -100 64 -129 69 -410 69 l-248 0 0 215 0 215 425 0 425 0
0 215 0 215 -442 -1 c-303 0 -460 -4 -498 -13z m510 -1481 l0 -215 -210 0
-210 0 0 215 0 215 210 0 210 0 0 -215z"/>
</g>
</svg>
