<svg width="30" height="32" viewBox="0 0 30 32" fill="none" xmlns="http://www.w3.org/2000/svg">
<path d="M10 22.5357C8.83333 22.5357 7.84722 22.1617 7.04167 21.4137C6.23611 20.6656 5.83333 19.75 5.83333 18.6666C5.83333 17.5833 6.23611 16.6676 7.04167 15.9196C7.84722 15.1716 8.83333 14.7976 10 14.7976C11.1667 14.7976 12.1528 15.1716 12.9583 15.9196C13.7639 16.6676 14.1667 17.5833 14.1667 18.6666C14.1667 19.75 13.7639 20.6656 12.9583 21.4137C12.1528 22.1617 11.1667 22.5357 10 22.5357ZM3.33333 31.0476C2.41667 31.0476 1.63194 30.7445 0.979167 30.1384C0.326389 29.5322 0 28.8035 0 27.9524V6.28569C0 5.4345 0.326389 4.70583 0.979167 4.09968C1.63194 3.49353 2.41667 3.19045 3.33333 3.19045H5V0.0952148H8.33333V3.19045H21.6667V0.0952148H25V3.19045H26.6667C27.5833 3.19045 28.3681 3.49353 29.0208 4.09968C29.6736 4.70583 30 5.4345 30 6.28569V27.9524C30 28.8035 29.6736 29.5322 29.0208 30.1384C28.3681 30.7445 27.5833 31.0476 26.6667 31.0476H3.33333ZM3.33333 27.9524H26.6667V12.4762H3.33333V27.9524ZM3.33333 9.38093H26.6667V6.28569H3.33333V9.38093Z" fill="white"/>
</svg>
