<svg width="132" height="105" viewBox="0 0 132 105" fill="none" xmlns="http://www.w3.org/2000/svg">
<path d="M12.6401 20.7129C11.0052 20.7129 9.67997 22.0024 9.67997 23.593V92.7155C9.67997 94.3061 11.0052 95.5956 12.6401 95.5956H119.203C120.838 95.5956 122.164 94.3061 122.164 92.7155V23.593C122.164 22.0024 120.838 20.7129 119.203 20.7129H12.6401ZM12.6401 12.0726H119.203C125.743 12.0726 131.044 17.2305 131.044 23.593V92.7155C131.044 99.078 125.743 104.236 119.203 104.236H12.6401C6.1008 104.236 0.799683 99.078 0.799683 92.7155V23.593C0.799683 17.2305 6.1008 12.0726 12.6401 12.0726ZM7.49872 48.0739C5.0465 48.0739 3.05858 46.1397 3.05858 43.7537C3.05858 41.3678 5.0465 39.4336 7.49872 39.4336H36.8015C39.2537 39.4336 41.2416 41.3678 41.2416 43.7537C41.2416 46.1397 39.2537 48.0739 36.8015 48.0739H7.49872ZM92.8599 48.0739C90.4077 48.0739 88.4198 46.1397 88.4198 43.7537C88.4198 41.3678 90.4077 39.4336 92.8599 39.4336H125.26C127.712 39.4336 129.7 41.3678 129.7 43.7537C129.7 46.1397 127.712 48.0739 125.26 48.0739H92.8599ZM64.8631 90.5322C46.0627 90.5322 30.822 75.7033 30.822 57.411C30.822 39.1187 46.0627 24.2898 64.8631 24.2898C83.6634 24.2898 98.9042 39.1187 98.9042 57.411C98.9042 75.7033 83.6634 90.5322 64.8631 90.5322ZM64.8631 81.8919C78.759 81.8919 90.0239 70.9314 90.0239 57.411C90.0239 43.8906 78.759 32.9301 64.8631 32.9301C50.9671 32.9301 39.7023 43.8906 39.7023 57.411C39.7023 70.9314 50.9671 81.8919 64.8631 81.8919ZM45.4233 17.4478L37.6079 13.3454C39.5063 9.92144 41.6614 6.98831 44.0826 4.5564C47.0304 1.59558 50.6755 0.0405273 54.7764 0.0405273L96.2708 0.0545383C100.545 0.390273 104.214 2.10158 107.062 5.11043C109.368 7.5462 111.41 10.2533 113.185 13.2263L105.507 17.5669C104.052 15.1315 102.394 12.9325 100.531 10.9642C99.21 9.56903 97.6238 8.82924 95.9134 8.68083H54.7764C53.1211 8.68083 51.7632 9.26016 50.461 10.5681C48.6322 12.405 46.9498 14.6947 45.4233 17.4478ZM17.0802 7.7288C17.0802 5.34284 19.0681 3.40865 21.5203 3.40865C23.9726 3.40865 25.9605 5.34284 25.9605 7.7288V14.9527C25.9605 17.3387 23.9726 19.2729 21.5203 19.2729C19.0681 19.2729 17.0802 17.3387 17.0802 14.9527V7.7288Z" fill="#555555"/>
</svg>
