<svg width="46" height="46" viewBox="0 0 46 46" fill="none" xmlns="http://www.w3.org/2000/svg">
<path d="M23 0C35.7025 0 46 10.2975 46 23C46 35.7025 35.7025 46 23 46C10.2975 46 0 35.7025 0 23C0 10.2975 10.2975 0 23 0ZM28.0752 15.7241L23.023 20.769L17.9744 15.7241C17.423 15.1732 16.5636 15.1184 15.951 15.5597L15.7567 15.7251C15.1445 16.3378 15.145 17.3307 15.7577 17.9428L20.8058 22.9862L15.7577 28.0303C15.145 28.6424 15.1445 29.6353 15.7567 30.248C16.3688 30.8607 17.3617 30.8612 17.9744 30.249L23.023 25.2011L28.0752 30.249C28.6267 30.7999 29.4861 30.8547 30.0987 30.4134L30.293 30.248C30.9051 29.6353 30.9046 28.6424 30.292 28.0303L25.2425 22.9862L30.292 17.9428C30.9046 17.3307 30.9051 16.3378 30.293 15.7251C29.6808 15.1124 28.6879 15.1119 28.0752 15.7241Z" fill="#555555"/>
<path d="M27.7218 15.3704L23.0231 20.0623L18.3278 15.3704L18.3278 15.3704C17.6002 14.6434 16.467 14.5718 15.6588 15.1539L15.6423 15.1658L15.6268 15.179L15.4325 15.3444L15.4172 15.3575L15.403 15.3717C14.5957 16.1798 14.5963 17.4893 15.4043 18.2966L15.7341 17.9664L15.4043 18.2966L20.0984 22.9862L15.4043 27.6765C15.4043 27.6765 15.4043 27.6766 15.4043 27.6766C14.5963 28.4839 14.5957 29.7934 15.403 30.6014C16.2103 31.4094 17.5198 31.41 18.3278 30.6027L18.328 30.6026L23.0231 25.908L27.7218 30.6027L27.7218 30.6027C28.4494 31.3297 29.5826 31.4013 30.3909 30.8192L30.4074 30.8073L30.4228 30.7941L30.6171 30.6287L30.6325 30.6156L30.6467 30.6014C31.454 29.7933 31.4534 28.4838 30.6453 27.6765L30.6453 27.6765L25.95 22.9862L30.6453 18.2966L30.6453 18.2966C31.4534 17.4893 31.454 16.1798 30.6467 15.3717C29.8394 14.5637 28.5299 14.5631 27.7218 15.3704ZM23 0.5C35.4264 0.5 45.5 10.5736 45.5 23C45.5 35.4264 35.4264 45.5 23 45.5C10.5736 45.5 0.5 35.4264 0.5 23C0.5 10.5736 10.5736 0.5 23 0.5Z" stroke="#96A0FF" stroke-opacity="0.6"/>
</svg>
