<svg width="19" height="17" viewBox="0 0 27 25" fill="none" xmlns="http://www.w3.org/2000/svg">
<path d="M12.3833 22.4041C9.52284 22.1552 7.13604 21.0852 5.22289 19.194C3.30973 17.3028 2.35316 15.0715 2.35316 12.5001C2.35316 9.92875 3.30973 7.69746 5.22289 5.80626C7.13604 3.91506 9.52284 2.84503 12.3833 2.59619V5.5823C10.4516 5.81456 8.85416 6.58597 7.59111 7.89654C6.32806 9.20711 5.69653 10.7416 5.69653 12.5001C5.69653 14.2586 6.32806 15.7931 7.59111 17.1037C8.85416 18.4143 10.4516 19.1857 12.3833 19.418V22.4041ZM14.6122 22.4041V19.418C16.3582 19.2189 17.8348 18.5719 19.0422 17.477C20.2495 16.3821 20.9832 15.0549 21.2432 13.4955H24.5866C24.3266 15.8678 23.2632 17.8876 21.3965 19.5548C19.5297 21.2221 17.2683 22.1718 14.6122 22.4041ZM21.2432 11.5048C20.9832 9.94534 20.2495 8.61818 19.0422 7.52327C17.8348 6.42837 16.3582 5.78138 14.6122 5.5823V2.59619C17.2683 2.82844 19.5297 3.77819 21.3965 5.44544C23.2632 7.11268 24.3266 9.13246 24.5866 11.5048H21.2432Z" fill="#FF0000"/>
</svg>
