<svg width="19" height="17" viewBox="0 0 23 21" fill="none" xmlns="http://www.w3.org/2000/svg">
<path d="M10.3834 20.4041C7.52295 20.1552 5.13615 19.0852 3.223 17.194C1.30985 15.3028 0.353271 13.0715 0.353271 10.5001C0.353271 7.92875 1.30985 5.69746 3.223 3.80626C5.13615 1.91506 7.52295 0.845034 10.3834 0.596191V3.5823C8.45166 3.81456 6.85428 4.58597 5.59122 5.89654C4.32817 7.20711 3.69665 8.74164 3.69665 10.5001C3.69665 12.2586 4.32817 13.7931 5.59122 15.1037C6.85428 16.4143 8.45166 17.1857 10.3834 17.418V20.4041ZM12.6123 20.4041V17.418C14.3583 17.2189 15.8349 16.5719 17.0423 15.477C18.2496 14.3821 18.9833 13.0549 19.2433 11.4955H22.5867C22.3267 13.8678 21.2633 15.8876 19.3966 17.5548C17.5299 19.2221 15.2684 20.1718 12.6123 20.4041ZM19.2433 9.50476C18.9833 7.94534 18.2496 6.61818 17.0423 5.52327C15.8349 4.42837 14.3583 3.78138 12.6123 3.5823V0.596191C15.2684 0.828444 17.5299 1.77819 19.3966 3.44544C21.2633 5.11268 22.3267 7.13246 22.5867 9.50476H19.2433Z" fill="#53E66B"/>
</svg>
