<svg width="40" height="40" viewBox="0 0 40 40" fill="none" xmlns="http://www.w3.org/2000/svg">
<path d="M13.3333 28.3333C13.8056 28.3333 14.2014 28.1736 14.5208 27.8542C14.8403 27.5347 15 27.1389 15 26.6667C15 26.1944 14.8403 25.7986 14.5208 25.4792C14.2014 25.1597 13.8056 25 13.3333 25C12.8611 25 12.4653 25.1597 12.1458 25.4792C11.8264 25.7986 11.6667 26.1944 11.6667 26.6667C11.6667 27.1389 11.8264 27.5347 12.1458 27.8542C12.4653 28.1736 12.8611 28.3333 13.3333 28.3333ZM13.3333 21.6667C13.8056 21.6667 14.2014 21.5069 14.5208 21.1875C14.8403 20.8681 15 20.4722 15 20C15 19.5278 14.8403 19.1319 14.5208 18.8125C14.2014 18.4931 13.8056 18.3333 13.3333 18.3333C12.8611 18.3333 12.4653 18.4931 12.1458 18.8125C11.8264 19.1319 11.6667 19.5278 11.6667 20C11.6667 20.4722 11.8264 20.8681 12.1458 21.1875C12.4653 21.5069 12.8611 21.6667 13.3333 21.6667ZM13.3333 15C13.8056 15 14.2014 14.8403 14.5208 14.5208C14.8403 14.2014 15 13.8056 15 13.3333C15 12.8611 14.8403 12.4653 14.5208 12.1458C14.2014 11.8264 13.8056 11.6667 13.3333 11.6667C12.8611 11.6667 12.4653 11.8264 12.1458 12.1458C11.8264 12.4653 11.6667 12.8611 11.6667 13.3333C11.6667 13.8056 11.8264 14.2014 12.1458 14.5208C12.4653 14.8403 12.8611 15 13.3333 15ZM18.3333 28.3333H28.3333V25H18.3333V28.3333ZM18.3333 21.6667H28.3333V18.3333H18.3333V21.6667ZM18.3333 15H28.3333V11.6667H18.3333V15ZM8.33333 35C7.41667 35 6.63194 34.6736 5.97917 34.0208C5.32639 33.3681 5 32.5833 5 31.6667V8.33333C5 7.41667 5.32639 6.63194 5.97917 5.97917C6.63194 5.32639 7.41667 5 8.33333 5H31.6667C32.5833 5 33.3681 5.32639 34.0208 5.97917C34.6736 6.63194 35 7.41667 35 8.33333V31.6667C35 32.5833 34.6736 33.3681 34.0208 34.0208C33.3681 34.6736 32.5833 35 31.6667 35H8.33333ZM8.33333 31.6667H31.6667V8.33333H8.33333V31.6667Z" fill="white"/>
</svg>
