<?xml version="1.0" standalone="no"?>
<!DOCTYPE svg PUBLIC "-//W3C//DTD SVG 20010904//EN"
 "http://www.w3.org/TR/2001/REC-SVG-20010904/DTD/svg10.dtd">
<svg version="1.0" xmlns="http://www.w3.org/2000/svg"
 width="50" height="50" viewBox="0 0 512.000000 512.000000"
 preserveAspectRatio="xMidYMid meet">

<g transform="translate(0.000000,512.000000) scale(0.100000,-0.100000)"
fill="#000000" stroke="none">
<path d="M1280 3415 l0 -215 215 0 215 0 0 -855 0 -855 210 0 210 0 0 1070 0
1070 -425 0 -425 0 0 -215z"/>
<path d="M2900 3617 c-166 -37 -296 -169 -330 -333 -7 -33 -10 -289 -8 -755
l3 -704 24 -58 c44 -112 143 -207 258 -250 52 -19 82 -22 311 -25 275 -4 352
3 440 43 109 50 206 174 232 298 7 37 10 275 8 758 l-3 704 -24 58 c-44 112
-143 207 -258 250 -53 20 -80 21 -328 24 -186 1 -287 -2 -325 -10z m510 -1057
l0 -640 -210 0 -210 0 0 640 0 640 210 0 210 0 0 -640z"/>
</g>
</svg>
