<?xml version="1.0" standalone="no"?>
<!DOCTYPE svg PUBLIC "-//W3C//DTD SVG 20010904//EN"
 "http://www.w3.org/TR/2001/REC-SVG-20010904/DTD/svg10.dtd">
<svg version="1.0" xmlns="http://www.w3.org/2000/svg"
 width="50" height="50" viewBox="0 0 512.000000 512.000000"
 preserveAspectRatio="xMidYMid meet">

<g transform="translate(0.000000,512.000000) scale(0.100000,-0.100000)"
fill="#000000" stroke="none">
<path d="M1920 2990 l0 -640 425 0 425 0 0 -215 0 -215 -425 0 -425 0 0 -216
0 -215 468 3 c452 3 469 4 525 25 115 43 214 139 258 250 23 57 24 66 24 363
0 270 -2 311 -18 357 -28 79 -98 167 -169 214 -100 64 -129 69 -410 69 l-248
0 0 215 0 215 425 0 425 0 0 215 0 215 -640 0 -640 0 0 -640z"/>
</g>
</svg>
