<svg width="18" height="18" viewBox="0 0 18 18" fill="none" xmlns="http://www.w3.org/2000/svg">
<path d="M15.438 1.95407H13.5V0.54607C13.5 0.28407 13.27 0.0340696 13 0.0460696C12.8681 0.0483816 12.7423 0.101802 12.649 0.195074C12.5557 0.288346 12.5023 0.414184 12.5 0.54607V1.95407H5.50001V0.54607C5.50001 0.28407 5.27001 0.0340696 5.00001 0.0460696C4.86813 0.0483816 4.74229 0.101802 4.64902 0.195074C4.55574 0.288346 4.50232 0.414184 4.50001 0.54607V1.95407H2.56201C1.89921 1.95486 1.26379 2.21851 0.795122 2.68718C0.326453 3.15585 0.0628056 3.79127 0.0620117 4.45407V15.4541C0.0620117 16.8331 1.18401 17.9541 2.56201 17.9541H15.437C16.816 17.9541 17.937 16.8331 17.937 15.4541V4.45407C17.9365 3.79136 17.6731 3.15594 17.2045 2.68724C16.736 2.21854 16.1007 1.95486 15.438 1.95407ZM2.56201 2.95407H4.50001V3.54607C4.50001 3.80807 4.73001 4.05807 5.00001 4.04607C5.27101 4.03407 5.50001 3.82607 5.50001 3.54607V2.95407H12.5V3.54607C12.5 3.80807 12.73 4.05807 13 4.04607C13.271 4.03407 13.5 3.82607 13.5 3.54607V2.95407H15.437C16.264 2.95407 16.937 3.62707 16.937 4.45407V6.03807H1.06201V4.45407C1.06201 3.62707 1.73501 2.95407 2.56201 2.95407ZM15.438 16.9541H2.56201C1.73501 16.9541 1.06201 16.2811 1.06201 15.4541V7.03807H16.937V15.4541C16.937 15.8517 16.7791 16.2331 16.498 16.5144C16.2169 16.7957 15.8357 16.9538 15.438 16.9541Z" fill="black"/>
</svg>
