<svg width="109" height="16" viewBox="0 0 109 16" fill="none" xmlns="http://www.w3.org/2000/svg">
<path d="M0 15.8062V0.215344H11.3402V3.53163H4.26658V6.35262H10.6216V9.66893H4.26658V15.8062H0ZM15.0229 15.8062H10.397L15.8089 0.215344H21.6248L27.0142 15.8062H22.4108L21.434 12.7483H15.9885L15.0229 15.8062ZM16.9765 9.64737H20.4459L18.773 4.41453H18.6382L16.9765 9.64737ZM36.7825 5.03904C36.6927 3.99462 35.9741 3.37012 34.5144 3.38089C33.1109 3.37012 32.4597 3.90848 32.4485 4.62988C32.4148 5.43742 33.1783 5.87887 34.6941 6.18038L36.0414 6.48181C39.5333 7.19246 41.094 8.81831 41.1165 11.2194C41.094 14.2773 38.6463 15.9892 34.5369 16C30.3377 15.9892 27.6093 14.245 27.5756 10.4011H31.6626C31.7299 11.8546 32.7741 12.6191 34.4695 12.6191C35.9404 12.6191 36.7263 12.0484 36.7376 11.2194C36.7263 10.4657 36.0526 10.0242 34.2449 9.64737L32.6057 9.30282C29.7426 8.69985 27.991 7.34321 28.0023 4.93136C27.9798 1.98116 30.6969 0 34.5144 0C38.4105 0 40.8694 2.01346 40.8919 5.03904H36.7825ZM42.3964 3.53163V0.215344H56.4088V3.53163H51.5134V15.8062H47.2917V3.53163H42.3964ZM62.2024 15.8062L57.4193 0.215344H62.1799L64.4702 9.97042H64.605L67.2775 0.215344H71.0499L73.7447 10.0135H73.8795L76.17 0.215344H80.9305L76.1477 15.8062H72.038L69.2307 6.89098H69.096L66.2893 15.8062H62.2024ZM86.6569 0.215344V15.8062H82.3901V0.215344H86.6569ZM88.8573 15.8062V0.215344H93.1241V6.58949H93.3483L98.3784 0.215344H103.386L97.8169 7.1709L103.499 15.8062H98.3784L94.6283 9.88424L93.1241 11.7362V15.8062H88.8573ZM109 0.215344V15.8062H104.733V0.215344H109Z" fill="white"/>
</svg>
