<svg width="40" height="40" viewBox="0 0 48 48" fill="none" xmlns="http://www.w3.org/2000/svg">
<g clip-path="url(#clip0_3_3928)">
<path d="M24 48C37.255 48 48 37.255 48 24C48 10.745 37.255 0 24 0C10.745 0 0 10.745 0 24C0 37.255 10.745 48 24 48Z" />
<path fill-rule="evenodd" clip-rule="evenodd" d="M28.46 9.068L11.81 10.294C10.468 10.41 10 11.285 10 12.334V30.532C10 31.349 10.292 32.048 10.993 32.982L14.907 38.056C15.55 38.873 16.134 39.048 17.362 38.99L36.697 37.823C38.332 37.707 38.8 36.948 38.8 35.665V15.193C38.8 14.529 38.537 14.338 37.763 13.773C37.7189 13.7407 37.6749 13.7084 37.631 13.676L32.316 9.943C31.031 9.011 30.505 8.893 28.46 9.068ZM17.8 14.857C16.221 14.963 15.863 14.987 14.966 14.26L12.686 12.452C12.454 12.218 12.571 11.926 13.154 11.868L29.161 10.702C30.504 10.585 31.205 11.052 31.731 11.46L34.477 13.443C34.594 13.502 34.885 13.851 34.535 13.851L18.004 14.843L17.8 14.857ZM15.959 35.49V18.11C15.959 17.351 16.192 17.001 16.893 16.942L35.878 15.834C36.522 15.776 36.814 16.184 36.814 16.942V34.206C36.814 34.965 36.697 35.607 35.644 35.665L17.477 36.715C16.426 36.773 15.959 36.424 15.959 35.49ZM33.894 19.042C34.01 19.567 33.894 20.092 33.367 20.152L32.491 20.325V33.157C31.731 33.565 31.031 33.798 30.447 33.798C29.512 33.798 29.277 33.506 28.577 32.632L22.851 23.65V32.34L24.663 32.749C24.663 32.749 24.663 33.799 23.201 33.799L19.171 34.032C19.055 33.798 19.171 33.216 19.581 33.099L20.631 32.808V21.318L19.171 21.2C19.055 20.675 19.346 19.917 20.165 19.859L24.488 19.567L30.447 28.667V20.617L28.927 20.443C28.811 19.8 29.277 19.334 29.862 19.276L33.894 19.042Z" fill="black"/>
</g>
<defs>
<clipPath id="clip0_3_3928">
<rect width="48" height="48" fill="white"/>
</clipPath>
</defs>
</svg>
