<svg width="40" height="40" viewBox="0 0 48 48" fill="white" xmlns="http://www.w3.org/2000/svg">
<path d="M24 48C37.255 48 48 37.255 48 24C48 10.745 37.255 0 24 0C10.745 0 0 10.745 0 24C0 37.255 10.745 48 24 48Z" />
<path d="M24 7.84998C15.0804 7.84998 7.84998 15.0998 7.84998 24.0428C8.70066 45.5223 39.3024 45.5162 40.15 24.0428C40.15 15.0998 32.9192 7.84998 24 7.84998Z" fill="#2D8CFF"/>
<path d="M33.6168 28.6093C33.5995 29.4614 32.9168 29.749 32.2551 29.2774C31.0213 28.4138 29.7959 27.5383 28.5658 26.67C28.5689 27.0719 28.5634 28.0184 28.5655 28.4302C28.5651 29.1938 28.1857 29.5654 27.4061 29.5658L20.7638 29.5664C19.6384 29.5668 18.5134 29.5671 17.388 29.5658C15.2606 29.5634 13.8309 28.1697 13.8302 26.0974V19.5677C13.8302 18.7932 14.1977 18.4321 14.9862 18.4321C17.6895 18.4835 22.4128 18.4379 25.0631 18.4331C26.9416 18.4352 28.3006 19.6034 28.5277 21.3299C29.7708 20.4527 31.0087 19.5684 32.2551 18.6956C32.8301 18.2784 33.5869 18.4124 33.6168 19.3641C33.625 22.3513 33.6349 25.6163 33.6168 28.6093Z" fill="#F1F1F1"/>
</svg>
