<?xml version="1.0" standalone="no"?>
<!DOCTYPE svg PUBLIC "-//W3C//DTD SVG 20010904//EN"
 "http://www.w3.org/TR/2001/REC-SVG-20010904/DTD/svg10.dtd">
<svg version="1.0" xmlns="http://www.w3.org/2000/svg"
 width="1668.000000pt" height="2154.000000pt" viewBox="0 0 1668.000000 2154.000000"
 preserveAspectRatio="xMidYMid meet">

<g transform="translate(0.000000,2154.000000) scale(0.100000,-0.100000)"
fill="#000000" stroke="none">
<path d="M7697 21021 c-81 -21 -19 37 -625 -583 -246 -252 -455 -472 -464
-490 -23 -42 -23 -96 0 -129 9 -15 111 -152 225 -304 115 -152 207 -278 205
-280 -2 -1 -223 -18 -493 -36 l-489 -33 -804 269 -803 270 -92 104 c-134 152
-211 197 -277 161 -44 -24 -51 -130 -20 -292 25 -130 85 -338 102 -354 18 -17
1295 -519 1531 -601 l188 -66 -17 -24 c-8 -14 -157 -222 -329 -463 -298 -416
-314 -440 -320 -492 -5 -41 -3 -63 8 -85 25 -48 152 -177 235 -240 42 -31 167
-146 276 -255 l199 -197 -50 -73 c-65 -94 -94 -153 -95 -189 -3 -102 114 -131
225 -57 114 76 320 287 364 372 35 67 1 143 -92 209 -59 42 -534 450 -535 459
0 6 437 598 459 620 7 8 1195 358 1215 358 14 0 278 -469 270 -481 -2 -5 -174
-133 -382 -285 -207 -152 -392 -291 -410 -307 -41 -40 -72 -103 -72 -151 0
-45 32 -110 64 -131 40 -26 152 -30 215 -7 79 29 1098 738 1107 771 4 14 1 33
-6 45 -8 12 -110 190 -228 396 -118 206 -223 389 -233 407 l-20 31 131 72 c71
39 130 75 130 81 0 21 33 6 91 -40 133 -107 297 -164 474 -164 134 -1 216 18
340 78 381 185 536 645 346 1030 -120 244 -365 403 -646 421 -127 8 -256 -19
-384 -82 -82 -41 -110 -62 -192 -143 -82 -82 -102 -110 -142 -191 -26 -52 -54
-122 -63 -155 -23 -91 -29 -247 -11 -330 8 -38 14 -71 13 -72 -4 -5 -279 -133
-281 -131 -33 38 -435 602 -433 608 2 5 188 196 413 425 226 229 418 432 429
452 10 20 21 62 23 94 7 67 -19 132 -69 174 -36 31 -99 33 -201 6z"/>
<path d="M5859 16304 c-10 -12 -9 -455 9 -2462 13 -1346 36 -3934 52 -5752 16
-1818 32 -3540 36 -3828 7 -570 5 -552 64 -552 61 0 59 -43 49 940 -5 492 -27
2920 -49 5395 -63 6979 -54 6231 -75 6255 -22 24 -67 26 -86 4z"/>
<path d="M6233 16275 c-72 -43 -101 -133 -68 -212 19 -45 41 -70 79 -90 17 -9
225 -40 519 -79 269 -35 492 -66 494 -68 3 -2 24 -245 48 -540 32 -384 48
-543 59 -564 57 -110 195 -133 281 -46 58 58 58 57 14 601 -23 272 -39 497
-36 500 6 5 569 -66 576 -73 3 -3 26 -277 52 -609 26 -333 53 -620 59 -639 14
-42 65 -90 115 -106 76 -25 167 17 205 94 l21 45 -45 583 c-26 321 -51 641
-56 712 -8 107 -14 136 -34 170 -42 71 -62 83 -151 90 -133 11 -848 106 -879
116 -16 6 -50 10 -75 10 -25 0 -271 29 -545 65 -275 36 -520 65 -545 65 -31 0
-60 -8 -88 -25z"/>
<path d="M4482 16197 c-9 -10 -32 -580 -32 -783 0 -61 23 -84 90 -90 30 -3
226 -28 435 -56 209 -27 398 -52 421 -55 23 -3 51 0 63 7 31 16 52 67 40 99
-15 38 -39 50 -99 51 -30 0 -122 9 -204 20 -81 11 -152 20 -157 20 -5 0 -9 47
-9 105 0 77 3 105 13 105 6 0 96 -13 199 -30 103 -16 194 -27 202 -24 21 8 39
60 32 90 -10 38 -69 59 -236 83 -80 12 -160 24 -177 28 l-33 5 0 109 0 109 28
-6 c15 -2 119 -18 232 -34 191 -27 206 -28 232 -12 57 33 57 108 -1 131 -14 6
-71 15 -126 20 -55 6 -275 35 -490 66 -214 30 -395 55 -401 55 -6 0 -16 -6
-22 -13z m356 -182 l32 -6 0 -104 c0 -122 15 -113 -142 -89 l-108 17 0 107 0
107 93 -13 c50 -8 107 -16 125 -19z m-68 -353 l105 -17 3 -108 3 -107 -38 6
c-21 3 -81 11 -133 17 l-95 12 -3 108 -3 107 28 -1 c15 0 75 -8 133 -17z"/>
<path d="M4100 15303 c-31 -12 -50 -37 -50 -68 0 -72 39 -83 506 -151 l192
-27 4 -151 c3 -83 8 -158 12 -167 16 -36 103 -52 126 -24 9 11 12 57 11 165
-2 139 -1 150 16 150 10 0 153 -20 317 -45 198 -29 305 -41 317 -35 9 5 20 26
23 46 9 47 -12 80 -61 94 -21 5 -301 49 -623 96 -614 90 -735 109 -760 117 -8
3 -22 3 -30 0z"/>
<path d="M6285 14912 c-46 -22 -79 -55 -94 -95 -27 -70 0 -166 56 -204 16 -11
266 -116 557 -234 290 -117 534 -218 542 -224 16 -13 72 -452 58 -464 -5 -5
-229 -66 -499 -136 -269 -70 -501 -133 -515 -140 -14 -7 -44 -16 -67 -20 -50
-8 -116 -53 -143 -98 -39 -64 -13 -180 48 -210 15 -8 68 -17 117 -21 75 -5 99
-3 145 13 30 10 532 144 1115 296 583 152 1071 283 1085 290 123 64 115 265
-13 332 -16 8 -256 107 -534 219 -278 113 -516 212 -529 220 -12 9 -44 21 -71
29 -26 7 -293 113 -593 234 -300 122 -563 224 -585 227 -27 3 -53 -2 -80 -14z
m1621 -979 c90 -36 162 -68 160 -70 -7 -8 -300 -83 -304 -79 -3 4 -31 186 -32
209 0 11 2 11 176 -60z"/>
<path d="M4575 14690 c-16 -18 -17 -52 -16 -507 2 -444 4 -491 20 -518 13 -23
25 -31 53 -33 65 -5 64 -17 58 541 l-5 499 -24 19 c-30 24 -63 24 -86 -1z"/>
<path d="M4018 14628 c-10 -19 -12 -109 -8 -475 l5 -451 24 -26 c29 -31 69
-34 102 -7 l23 18 -3 387 c-1 212 0 386 4 386 4 0 65 -13 137 -30 178 -41 187
-40 202 22 9 38 -8 75 -44 93 -24 12 -234 65 -407 102 -15 4 -25 -2 -35 -19z"/>
<path d="M4807 14543 c-4 -3 -7 -162 -7 -352 0 -327 1 -348 20 -378 16 -27 26
-33 53 -33 18 0 38 5 45 12 9 9 12 87 12 290 0 234 2 278 14 278 8 0 55 -9
105 -21 l91 -21 0 -253 c0 -249 0 -254 23 -279 22 -25 393 -206 422 -206 37 0
40 32 35 410 -4 271 -8 371 -18 388 -16 27 -61 30 -91 5 -20 -17 -21 -26 -24
-309 l-2 -291 -105 51 -105 51 -3 269 c-2 190 -6 274 -14 284 -18 21 -48 31
-232 73 -169 39 -207 45 -219 32z"/>
<path d="M5380 13020 c-18 -18 -20 -33 -20 -191 0 -167 0 -170 -20 -164 -12 4
-147 58 -302 121 -155 63 -291 114 -303 114 -45 0 -72 -62 -41 -93 8 -7 124
-58 258 -112 133 -54 246 -101 250 -105 5 -3 -103 -46 -240 -95 -240 -87 -292
-114 -292 -150 0 -20 36 -55 56 -55 9 0 154 50 321 111 168 61 306 109 308
107 1 -2 7 -70 11 -153 9 -147 9 -150 35 -164 24 -13 29 -13 53 2 l26 17 0
395 c0 382 -1 396 -20 415 -11 11 -29 20 -40 20 -11 0 -29 -9 -40 -20z"/>
<path d="M6385 12938 c-32 -17 -66 -51 -81 -80 -8 -15 -52 -278 -99 -585 -47
-307 -90 -588 -96 -624 -7 -37 -9 -82 -5 -101 9 -48 69 -115 114 -128 20 -6
238 -58 484 -116 500 -117 493 -117 565 -51 34 32 39 46 168 510 73 263 135
480 137 482 4 5 693 -211 714 -224 7 -4 -34 -149 -122 -431 -74 -234 -134
-442 -134 -463 0 -89 67 -158 161 -165 71 -5 122 17 154 67 19 29 315 946 345
1071 20 79 -22 161 -98 193 -20 9 -280 93 -577 187 -464 148 -547 171 -588
167 -61 -5 -116 -48 -139 -108 -9 -24 -72 -244 -139 -489 -67 -245 -125 -448
-128 -452 -6 -7 -526 114 -537 125 -4 3 22 190 56 414 99 653 98 642 88 687
-10 44 -46 89 -90 112 -32 17 -125 18 -153 2z"/>
<path d="M4232 12820 c-81 -19 -148 -92 -193 -210 -26 -66 -37 -249 -21 -327
40 -186 142 -296 259 -278 192 29 308 404 202 652 -51 119 -152 186 -247 163z
m84 -155 c54 -54 69 -108 69 -245 -1 -147 -22 -218 -81 -269 -44 -39 -69 -39
-105 0 -97 104 -89 401 13 506 38 40 70 42 104 8z"/>
<path d="M5077 12372 c-14 -15 -17 -41 -17 -141 0 -112 -2 -122 -17 -117 -10
2 -103 12 -206 22 -135 13 -193 15 -205 8 -22 -14 -28 -77 -8 -93 22 -18 825
-101 851 -88 25 13 35 27 35 53 0 41 -28 52 -177 68 -78 9 -144 16 -146 16 -3
0 -6 59 -9 131 -3 115 -6 133 -23 145 -26 19 -59 17 -78 -4z"/>
<path d="M4212 11834 l-22 -15 0 -430 c0 -416 1 -430 20 -449 11 -11 29 -20
40 -20 11 0 29 9 40 20 19 19 20 33 20 236 l0 216 28 -4 c15 -3 89 -15 164
-28 l136 -24 7 -94 c6 -80 10 -95 29 -106 14 -9 139 -21 368 -36 337 -23 348
-23 368 -5 24 22 26 58 4 79 -19 19 11 15 -192 30 -95 8 -175 16 -178 18 -5 6
-33 291 -29 296 2 2 87 -2 190 -9 l188 -12 19 22 c23 30 23 53 -2 76 -18 17
-66 22 -386 43 -439 29 -410 36 -399 -95 5 -67 4 -83 -7 -83 -42 0 -304 53
-310 63 -4 7 -8 76 -8 154 0 135 -1 143 -22 157 -12 9 -27 16 -33 16 -6 0 -21
-7 -33 -16z m659 -304 c26 0 26 -1 33 -97 3 -54 9 -122 12 -150 l7 -53 -50 0
c-28 0 -64 3 -81 6 l-30 6 -6 122 c-4 66 -10 134 -13 150 l-5 29 53 -6 c30 -4
66 -7 80 -7z"/>
<path d="M8275 10906 c-43 -19 -93 -79 -101 -123 -4 -20 6 -198 21 -395 16
-197 26 -360 24 -362 -2 -2 -443 -8 -980 -13 l-975 -9 -45 -25 c-133 -73 -109
-278 37 -318 23 -6 378 -6 1011 0 536 6 977 8 980 5 3 -3 13 -101 23 -218 10
-117 22 -225 28 -239 30 -75 122 -121 202 -100 84 23 130 86 130 181 0 99
-109 1461 -120 1501 -28 100 -142 156 -235 115z"/>
<path d="M4130 10793 c-36 -13 -60 -47 -66 -94 -10 -78 -22 -78 -105 -1 -41
38 -82 71 -92 75 -18 7 -57 -23 -57 -45 0 -11 90 -104 146 -149 17 -14 37 -35
43 -47 6 -12 22 -24 36 -28 30 -7 131 29 163 59 30 27 62 89 62 118 0 32 -38
87 -70 104 -31 16 -36 17 -60 8z"/>
<path d="M4392 10508 c-16 -20 -36 -799 -21 -832 13 -28 22 -32 94 -40 109
-13 608 -78 742 -97 157 -23 172 -20 198 31 19 36 11 76 -19 94 -11 8 -55 17
-96 20 -41 4 -137 14 -212 23 l-138 17 0 103 c0 98 1 103 21 103 11 0 95 -12
185 -26 91 -14 177 -24 192 -22 36 4 60 47 46 85 -15 43 -66 61 -264 90 l-180
27 0 108 c0 59 2 108 4 108 2 0 97 -13 211 -30 264 -38 266 -38 300 2 20 23
25 38 20 57 -10 42 -38 58 -117 66 -40 4 -262 33 -493 66 -231 32 -429 59
-441 59 -12 0 -26 -6 -32 -12z m298 -171 l85 -12 9 -103 c5 -56 6 -105 3 -108
-3 -4 -62 2 -131 12 l-126 18 0 108 0 108 38 -6 c20 -3 75 -11 122 -17z m-17
-362 l117 -18 0 -103 c0 -103 0 -104 -24 -104 -24 0 -149 15 -213 26 l-33 5 0
110 c0 100 2 110 18 105 9 -2 70 -12 135 -21z"/>
<path d="M3992 9608 c-25 -13 -37 -46 -28 -81 9 -39 71 -63 211 -86 112 -18
471 -71 480 -71 1 0 4 -67 6 -148 5 -175 13 -195 81 -206 37 -6 45 -4 62 16
17 21 18 35 12 166 l-7 142 25 0 c14 0 150 -18 301 -41 152 -22 290 -39 308
-37 28 3 33 8 41 40 12 48 -6 84 -48 97 -17 6 -294 49 -616 96 -322 47 -631
94 -688 105 -117 23 -109 22 -140 8z"/>
<path d="M4488 9058 l-24 -23 5 -498 6 -499 27 -23 c27 -23 58 -24 86 -2 16
13 18 983 1 1020 -10 23 -46 47 -69 47 -5 0 -20 -10 -32 -22z"/>
<path d="M3935 9006 c-18 -13 -19 -32 -16 -467 1 -250 7 -461 12 -471 26 -49
74 -62 117 -32 l22 15 0 390 c0 214 2 389 4 389 3 0 62 -13 131 -30 184 -44
204 -40 207 34 2 68 -24 82 -238 132 -104 25 -196 47 -205 49 -8 3 -24 -1 -34
-9z"/>
<path d="M8250 8934 c-292 -62 -1802 -324 -1870 -324 -10 0 -28 -8 -40 -18
l-22 -18 2 -535 c0 -383 4 -550 13 -584 15 -58 47 -86 108 -91 24 -3 355 -32
734 -65 562 -49 768 -71 1110 -119 455 -65 464 -65 523 -15 84 71 80 212 -7
275 -41 29 -52 30 -1111 181 -514 72 -938 135 -941 138 -4 3 -8 116 -10 250
l-4 245 55 13 c30 7 282 60 560 119 278 58 687 143 910 190 223 46 417 89 433
95 38 16 84 72 97 118 28 106 -67 225 -175 220 -11 -1 -175 -34 -365 -75z"/>
<path d="M4722 8911 c-11 -6 -13 -76 -12 -350 0 -187 3 -349 7 -359 17 -47 80
-71 111 -40 9 9 12 87 12 290 0 258 1 278 18 277 9 0 55 -11 102 -22 l85 -22
5 -257 c5 -246 6 -258 26 -279 25 -24 388 -199 415 -199 40 0 41 14 37 404 -3
351 -4 375 -22 395 -23 26 -56 27 -85 3 -22 -17 -22 -21 -21 -309 l1 -293 -78
36 c-43 19 -91 43 -108 53 l-30 17 -5 275 c-3 150 -7 275 -8 276 -15 16 -89
39 -237 72 -193 45 -194 45 -213 32z"/>
<path d="M4137 7432 c-10 -10 -17 -29 -17 -43 1 -13 36 -240 79 -503 71 -437
80 -481 100 -498 29 -23 34 -23 66 5 l26 22 -80 499 c-59 365 -85 504 -98 518
-21 23 -55 23 -76 0z"/>
<path d="M4442 7404 c-17 -12 -22 -24 -20 -47 3 -30 22 -45 253 -200 138 -92
259 -173 269 -180 17 -12 4 -28 -165 -207 -196 -207 -232 -259 -211 -305 14
-30 56 -43 79 -24 8 8 63 68 121 134 115 131 293 315 304 315 4 0 82 -49 173
-110 92 -60 172 -110 178 -110 48 0 75 71 40 102 -33 27 -967 641 -983 645 -8
2 -25 -4 -38 -13z"/>
<path d="M6345 6996 c-38 -16 -92 -78 -101 -113 -4 -15 17 -327 46 -693 58
-734 55 -717 128 -765 29 -19 60 -27 137 -35 55 -6 417 -47 805 -92 388 -44
724 -80 748 -80 53 0 99 26 135 78 22 30 377 676 683 1243 27 50 31 106 10
154 -15 37 -76 94 -109 102 -21 5 -2416 215 -2440 215 -7 -1 -26 -7 -42 -14z
m635 -390 c151 -14 547 -48 880 -76 333 -29 610 -54 617 -55 7 -3 -86 -184
-229 -447 -133 -244 -242 -444 -243 -445 -3 -4 -1317 146 -1322 151 -4 4 -73
828 -73 879 0 27 1 28 48 22 26 -3 171 -16 322 -29z"/>
<path d="M4230 6240 c-16 -16 -21 -29 -16 -49 3 -14 46 -192 96 -396 72 -295
94 -374 111 -387 12 -10 26 -18 33 -18 21 0 56 31 56 50 0 11 -36 169 -81 351
-44 182 -78 333 -75 337 6 5 297 -16 304 -22 1 -2 16 -75 32 -162 50 -263 50
-263 74 -280 29 -18 71 -5 81 25 3 12 -10 107 -30 212 -20 105 -35 192 -33
194 7 6 333 -28 338 -35 3 -5 27 -161 54 -347 33 -232 53 -343 64 -355 19 -22
65 -23 82 -3 7 8 13 26 13 39 0 13 -25 189 -54 391 -47 327 -55 369 -74 380
-12 8 -180 26 -445 49 -234 20 -444 39 -467 42 -34 5 -45 2 -63 -16z"/>
<path d="M4785 5447 c-13 -21 -12 -31 11 -116 14 -51 24 -94 22 -96 -2 -1
-153 11 -337 27 -318 28 -334 28 -353 12 -27 -25 -21 -75 12 -90 40 -18 1278
-120 1298 -107 30 19 28 85 -4 97 -14 5 -437 46 -478 46 -8 0 -23 39 -41 108
-15 59 -35 115 -43 125 -22 25 -68 22 -87 -6z"/>
<path d="M8590 5267 c-63 -34 -331 -183 -596 -330 l-481 -268 -591 62 -592 61
-47 -23 c-76 -38 -114 -113 -99 -195 9 -46 68 -111 115 -125 20 -6 302 -38
626 -73 l590 -62 580 -379 c319 -209 599 -385 621 -393 57 -19 116 -2 165 47
74 73 74 166 1 241 -20 20 -247 174 -504 341 -258 167 -468 307 -468 310 0 3
213 124 473 269 259 144 481 270 491 279 27 23 56 90 56 130 0 92 -81 171
-176 171 -41 0 -67 -10 -164 -63z"/>
<path d="M4294 4905 c-15 -24 -12 -35 82 -307 53 -156 104 -291 112 -300 17
-21 62 -24 80 -6 22 22 13 61 -64 286 -42 122 -74 225 -72 227 7 8 561 -44
568 -53 4 -4 30 -88 59 -187 101 -348 110 -374 136 -391 18 -12 28 -13 44 -4
47 25 46 33 -45 342 -100 342 -101 346 -123 352 -19 7 -679 66 -727 66 -25 0
-38 -7 -50 -25z"/>
<path d="M4206 4154 c-9 -8 -16 -26 -16 -39 0 -22 23 -55 38 -55 4 -1 268 -38
587 -84 440 -63 586 -81 603 -73 44 20 37 91 -11 102 -36 9 -1139 165 -1163
165 -13 0 -30 -7 -38 -16z"/>
<path d="M6970 3545 c-7 -8 -12 -25 -12 -38 0 -24 1192 -2015 1219 -2034 25
-19 41 -16 69 12 17 17 23 32 19 45 -3 11 -225 383 -492 827 -655 1090 -714
1187 -727 1195 -19 13 -63 9 -76 -7z"/>
<path d="M5985 3440 c-10 -11 -16 -29 -13 -43 6 -29 1194 -2007 1216 -2024 35
-28 92 -2 92 43 0 10 -76 145 -168 299 -93 154 -363 604 -601 1000 -238 396
-440 726 -449 733 -23 18 -56 15 -77 -8z"/>
<path d="M5010 3317 c-57 -29 -69 -7 569 -1067 335 -556 611 -1004 625 -1014
26 -20 26 -20 54 1 15 11 28 29 30 39 3 21 -1187 2009 -1220 2037 -24 20 -26
20 -58 4z"/>
</g>
</svg>
