<svg width="14" height="13" viewBox="0 0 14 13" fill="none" xmlns="http://www.w3.org/2000/svg">
<path d="M0 1.75C0 0.784766 0.784766 0 1.75 0H12.25C13.2152 0 14 0.784766 14 1.75V10.5C14 11.4652 13.2152 12.25 12.25 12.25H1.75C0.784766 12.25 0 11.4652 0 10.5V1.75ZM8.85391 4.66211C8.73086 4.48164 8.52852 4.375 8.3125 4.375C8.09648 4.375 7.89141 4.48164 7.77109 4.66211L5.39219 8.15117L4.66758 7.24609C4.5418 7.09023 4.35313 7 4.15625 7C3.95937 7 3.76797 7.09023 3.64492 7.24609L1.89492 9.43359C1.73633 9.63047 1.70625 9.90117 1.81563 10.1281C1.925 10.3551 2.15469 10.5 2.40625 10.5H5.03125H5.90625H11.5938C11.8371 10.5 12.0613 10.366 12.1734 10.15C12.2855 9.93398 12.2719 9.67422 12.1352 9.47461L8.85391 4.66211ZM3.0625 4.375C3.4106 4.375 3.74444 4.23672 3.99058 3.99058C4.23672 3.74444 4.375 3.4106 4.375 3.0625C4.375 2.7144 4.23672 2.38056 3.99058 2.13442C3.74444 1.88828 3.4106 1.75 3.0625 1.75C2.7144 1.75 2.38056 1.88828 2.13442 2.13442C1.88828 2.38056 1.75 2.7144 1.75 3.0625C1.75 3.4106 1.88828 3.74444 2.13442 3.99058C2.38056 4.23672 2.7144 4.375 3.0625 4.375Z" fill="white" fill-opacity="0.8"/>
</svg>
