<svg width="14" height="14" viewBox="0 0 14 14" fill="none" xmlns="http://www.w3.org/2000/svg">
<path d="M13.9951 6.98633C13.9951 7.47852 13.6306 7.86406 13.2174 7.86406H12.4396L12.4566 12.2445C12.4566 12.3184 12.4517 12.3922 12.4444 12.466V12.9062C12.4444 13.5105 12.0094 14 11.4722 14H11.0833C11.0566 14 11.0299 14 11.0031 13.9973C10.9691 14 10.9351 14 10.901 14H10.1111H9.52778C8.99063 14 8.55556 13.5105 8.55556 12.9062V12.25V10.5C8.55556 10.016 8.20799 9.625 7.77778 9.625H6.22222C5.79201 9.625 5.44444 10.016 5.44444 10.5V12.25V12.9062C5.44444 13.5105 5.00938 14 4.47222 14H3.88889H3.11354C3.07708 14 3.04063 13.9973 3.00417 13.9945C2.975 13.9973 2.94583 14 2.91667 14H2.52778C1.99063 14 1.55556 13.5105 1.55556 12.9062V9.84375C1.55556 9.81914 1.55556 9.7918 1.55799 9.76719V7.86406H0.777778C0.340278 7.86406 0 7.48125 0 6.98633C0 6.74023 0.0729167 6.52148 0.243056 6.33008L6.475 0.21875C6.64514 0.0273438 6.83958 0 7.00972 0C7.17986 0 7.37431 0.0546875 7.52014 0.191406L13.7278 6.33008C13.9222 6.52148 14.0194 6.74023 13.9951 6.98633Z" fill="white"/>
</svg>
