<svg width="15" height="12" viewBox="0 0 15 12" fill="none" xmlns="http://www.w3.org/2000/svg">
<path d="M4.16035 0.17182C4.43106 0.415179 4.45293 0.82807 4.20957 1.09877L2.24082 3.28627C2.12051 3.42026 1.95098 3.49955 1.77051 3.50229C1.59004 3.50502 1.41777 3.43666 1.28926 3.31088L0.192773 2.21713C-0.0615235 1.9601 -0.0615235 1.54448 0.192773 1.28744C0.44707 1.03041 0.86543 1.03041 1.11973 1.28744L1.72402 1.89174L3.23066 0.218304C3.47402 -0.0523992 3.88691 -0.0742743 4.15762 0.169085L4.16035 0.17182ZM4.16035 4.54682C4.43106 4.79018 4.45293 5.20307 4.20957 5.47377L2.24082 7.66127C2.12051 7.79526 1.95098 7.87455 1.77051 7.87729C1.59004 7.88002 1.41777 7.81166 1.28926 7.68588L0.192773 6.59213C-0.0642578 6.3351 -0.0642578 5.91948 0.192773 5.66518C0.449805 5.41088 0.86543 5.40815 1.11973 5.66518L1.72402 6.26948L3.23066 4.59604C3.47402 4.32534 3.88691 4.30346 4.15762 4.54682H4.16035ZM6.12637 1.75229C6.12637 1.2683 6.51738 0.877288 7.00137 0.877288H13.1264C13.6104 0.877288 14.0014 1.2683 14.0014 1.75229C14.0014 2.23627 13.6104 2.62729 13.1264 2.62729H7.00137C6.51738 2.62729 6.12637 2.23627 6.12637 1.75229ZM6.12637 6.12729C6.12637 5.6433 6.51738 5.25229 7.00137 5.25229H13.1264C13.6104 5.25229 14.0014 5.6433 14.0014 6.12729C14.0014 6.61127 13.6104 7.00229 13.1264 7.00229H7.00137C6.51738 7.00229 6.12637 6.61127 6.12637 6.12729ZM4.37637 10.5023C4.37637 10.0183 4.76738 9.62729 5.25137 9.62729H13.1264C13.6104 9.62729 14.0014 10.0183 14.0014 10.5023C14.0014 10.9863 13.6104 11.3773 13.1264 11.3773H5.25137C4.76738 11.3773 4.37637 10.9863 4.37637 10.5023ZM1.31387 9.18979C1.66196 9.18979 1.9958 9.32807 2.24194 9.57421C2.48809 9.82035 2.62637 10.1542 2.62637 10.5023C2.62637 10.8504 2.48809 11.1842 2.24194 11.4304C1.9958 11.6765 1.66196 11.8148 1.31387 11.8148C0.965771 11.8148 0.631931 11.6765 0.38579 11.4304C0.139648 11.1842 0.00136718 10.8504 0.00136718 10.5023C0.00136718 10.1542 0.139648 9.82035 0.38579 9.57421C0.631931 9.32807 0.965771 9.18979 1.31387 9.18979Z" fill="white" fill-opacity="0.8"/>
</svg>
