<svg width="24" height="24" viewBox="0 0 24 24" fill="none" xmlns="http://www.w3.org/2000/svg">
<g id="akar-icons:briefcase">
<g id="Group">
<path id="Vector" d="M19 7H5C3.89543 7 3 7.89543 3 9V17C3 18.1046 3.89543 19 5 19H19C20.1046 19 21 18.1046 21 17V9C21 7.89543 20.1046 7 19 7Z" stroke="#313131" stroke-width="1.5" stroke-linecap="round" stroke-linejoin="round"/>
<path id="Vector_2" d="M10 12L10.211 12.106C10.7665 12.3838 11.379 12.5284 12 12.5284C12.621 12.5284 13.2335 12.3838 13.789 12.106L14 12M9 6C9 5.46957 9.21071 4.96086 9.58579 4.58579C9.96086 4.21071 10.4696 4 11 4H13C13.5304 4 14.0391 4.21071 14.4142 4.58579C14.7893 4.96086 15 5.46957 15 6V7H9V6Z" stroke="#313131" stroke-width="1.5" stroke-linecap="round" stroke-linejoin="round"/>
</g>
</g>
</svg>
