<?xml version="1.0" standalone="no"?>
<!DOCTYPE svg PUBLIC "-//W3C//DTD SVG 20010904//EN"
 "http://www.w3.org/TR/2001/REC-SVG-20010904/DTD/svg10.dtd">
<svg version="1.0" xmlns="http://www.w3.org/2000/svg"
 width="50" height="50" viewBox="0 0 512.000000 512.000000"
 preserveAspectRatio="xMidYMid meet">

<g transform="translate(0.000000,512.000000) scale(0.100000,-0.100000)"
fill="#000000" stroke="none">
<path d="M2260 3617 c-84 -19 -149 -55 -213 -118 -111 -111 -130 -186 -125
-487 4 -238 9 -260 77 -343 32 -38 136 -99 170 -99 12 0 21 -4 21 -10 0 -5 -9
-10 -20 -10 -66 0 -177 -88 -220 -175 -25 -49 -25 -54 -25 -300 0 -239 1 -252
24 -308 46 -115 152 -215 268 -253 52 -17 90 -19 343 -19 253 0 291 2 343 19
116 38 222 138 268 253 23 56 24 69 24 308 l0 250 -34 63 c-19 35 -51 77 -70
93 -42 34 -113 69 -141 69 -11 0 -20 5 -20 10 0 6 9 10 21 10 32 0 137 59 165
93 14 16 37 53 52 81 l27 51 0 250 c0 239 -1 252 -24 308 -44 112 -143 207
-258 250 -53 20 -80 21 -328 24 -186 1 -287 -2 -325 -10z m510 -632 l0 -215
-210 0 -210 0 0 215 0 215 210 0 210 0 0 -215z m0 -850 l0 -215 -210 0 -210 0
0 215 0 215 210 0 210 0 0 -215z"/>
</g>
</svg>
