<?xml version="1.0" standalone="no"?>
<!DOCTYPE svg PUBLIC "-//W3C//DTD SVG 20010904//EN"
 "http://www.w3.org/TR/2001/REC-SVG-20010904/DTD/svg10.dtd">
<svg version="1.0" xmlns="http://www.w3.org/2000/svg"
 width="50" height="50" viewBox="0 0 512.000000 512.000000"
 preserveAspectRatio="xMidYMid meet">

<g transform="translate(0.000000,512.000000) scale(0.100000,-0.100000)"
fill="#000000" stroke="none">
<path d="M2260 3617 c-166 -38 -296 -169 -331 -334 -6 -34 -9 -155 -7 -330 3
-257 5 -282 25 -331 48 -117 145 -209 266 -252 51 -18 82 -20 307 -20 l250 0
0 -215 0 -215 -425 0 -425 0 0 -216 0 -215 468 3 c452 3 469 4 525 25 115 43
214 139 258 250 l24 58 0 735 0 735 -24 58 c-44 112 -143 207 -258 250 -53 20
-80 21 -328 24 -186 1 -287 -2 -325 -10z m510 -632 l0 -215 -210 0 -210 0 0
215 0 215 210 0 210 0 0 -215z"/>
</g>
</svg>
